{"title":"Frozen 2013 CAM XViD-BL4CKP34RL [P2PDL]","uid":9316385,"size":1496025531,"categoryP":"video","categoryS":"movies","magnet":"?xt=urn:btih:42772462e5ce890749457e49a9b880b0ffe4d7ff&amp;dn=Frozen+2013+CAM+XViD-BL4CKP34RL+%5BP2PDL%5D&amp;tr=udp%3A%2F%2Ftracker.openbittorrent.com%3A80&amp;tr=udp%3A%2F%2Fopen.demonii.com%3A1337&amp;tr=udp%3A%2F%2Ftracker.coppersurfer.tk%3A6969&amp;tr=udp%3A%2F%2Fexodus.desync.com%3A6969","seeders":6,"leechers":1,"uploader":"TeX","files":-1,"time":1386476603,"description":"   A Fine Release Brought to you from - BL4CKP34RL                  \n                                               \n\n******************************************************************************************\n                        Frozen.2013.CAM.XViD-BL4CKP34RL                  \n******************************************************************************************\n\nRipper ...........: J4CKSP4RR0W          IMDB Rating.......: 8.1/10                              \nVideo Codec.......: XViD                 Release Date......: 6 December 2013\nAudio Codec.......: mp3                  Theatre Date......: 27 November 2013\nAudio Bitrate.....: 128 kbps             Runtime...........: 1hr 32min 27sec\nSubtitles.........: no                   Language..........: ENGLISH\nResolution........: 720x368              IMDb URL..........: http://www.imdb.com/title/tt2294629/\n\n\nDETAILS:\n\n\nFormat                                   : AVI\nFormat/Info                              : Audio Video Interleave\nFile size                                : 1.37 GiB\nDuration                                 : 1h 32mn\nOverall bit rate                         : 2 124 Kbps\nWriting application                      : VirtualDubMod 1.5.10.2 (build 2540/release)\nWriting library                          : VirtualDub build 32839/release\n\nVideo\nID                                       : 0\nFormat                                   : MPEG-4 Visual\nFormat profile                           : Advanced Simple@L5\nFormat settings, BVOP                    : 2\nFormat settings, QPel                    : Yes\nFormat settings, GMC                     : No warppoints\nFormat settings, Matrix                  : Default (H.263)\nMuxing mode                              : Packed bitstream\nCodec ID                                 : XVID\nCodec ID/Hint                            : XviD\nDuration                                 : 1h 32mn\nBit rate                                 : 1 984 Kbps\nWidth                                    : 720 pixels\nHeight                                   : 368 pixels\nDisplay aspect ratio                     : 1.957\nFrame rate                               : 29.970 fps\nColor space                              : YUV\nChroma subsampling                       : 4:2:0\nBit depth                                : 8 bits\nScan type                                : Progressive\nCompression mode                         : Lossy\nBits/(Pixel*Frame)                       : 0.250\nStream size                              : 1.28 GiB (93%)\nWriting library                          : XviD 64\n\nAudio\nID                                       : 1\nFormat                                   : AC-3\nFormat/Info                              : Audio Coding 3\nMode extension                           : CM (complete main)\nFormat settings, Endianness              : Big\nCodec ID                                 : 2000\nDuration                                 : 1h 32mn\nBit rate mode                            : Constant\nBit rate                                 : 128 Kbps\nChannel(s)                               : 2 channels\nChannel positions                        : Front: L R\nSampling rate                            : 48.0 KHz\nBit depth                                : 16 bits\nCompression mode                         : Lossy\nStream size                              : 84.6 MiB (6%)\nAlignment                                : Split accross interleaves\nInterleave, duration                     : 33 ms (1.00 video frame)\nInterleave, preload duration             : 500 ms\n\n\n\n\nSOURCES:\n\n\n\nVIDEO: .............sum source ...thanks  \nAUDIO: .............same place...thanks\n\nNOTES:\n\nBlurred watermarks then fixed what we could.. still a few blocky parts but alot beter than it was.. audio pretty decent CAM audio.\n\nSCREENS :\n\n &lt;a href=&quot;\nhttp://s27.postimg.org/wx0o8m3sz/1el_Pf7_U.jpg&quot; rel=&quot;nofollow&quot; target=&quot;_NEW&quot;&gt;\nhttp://s27.postimg.org/wx0o8m3sz/1el_Pf7_U.jpg&lt;/a&gt; &lt;a href=&quot;\nhttp://s27.postimg.org/p5jya1znn/6lri_Q4_I.jpg&quot; rel=&quot;nofollow&quot; target=&quot;_NEW&quot;&gt;\nhttp://s27.postimg.org/p5jya1znn/6lri_Q4_I.jpg&lt;/a&gt; &lt;a href=&quot;\nhttp://s27.postimg.org/mpmq9y6yr/6_Ta_JYV8.jpg&quot; rel=&quot;nofollow&quot; target=&quot;_NEW&quot;&gt;\nhttp://s27.postimg.org/mpmq9y6yr/6_Ta_JYV8.jpg&lt;/a&gt; &lt;a href=&quot;\nhttp://s27.postimg.org/gd7l043wj/mxilj_Oi.jpg&quot; rel=&quot;nofollow&quot; target=&quot;_NEW&quot;&gt;\nhttp://s27.postimg.org/gd7l043wj/mxilj_Oi.jpg&lt;/a&gt;","torrent":{"xt":"urn:btih:42772462e5ce890749457e49a9b880b0ffe4d7ff","amp;dn":"Frozen+2013+CAM+XViD-BL4CKP34RL+%5BP2PDL%5D","amp;tr":["udp%3A%2F%2Ftracker.openbittorrent.com%3A80","udp%3A%2F%2Fopen.demonii.com%3A1337","udp%3A%2F%2Ftracker.coppersurfer.tk%3A6969","udp%3A%2F%2Fexodus.desync.com%3A6969"],"infoHash":"42772462e5ce890749457e49a9b880b0ffe4d7ff","infoHashBuffer":{"type":"Buffer","data":[66,119,36,98,229,206,137,7,73,69,126,73,169,184,128,176,255,228,215,255]},"announce":[],"urlList":[]}}